HIERARCHY
ROOT Hips
{
	OFFSET 0.000000 0.000000 0.000000
	CHANNELS 6 Xposition Yposition Zposition Zrotation Yrotation Xrotation 
	JOINT LHipJoint
	{
		OFFSET 0.000000 0.000000 0.000000
		CHANNELS 3 Zrotation Yrotation Xrotation
		JOINT LeftUpLeg
		{
			OFFSET 1.363060 -1.794630 0.839290
			CHANNELS 3 Zrotation Yrotation Xrotation
			JOINT LeftLeg
			{
				OFFSET 2.448110 -6.726130 0.000000
				CHANNELS 3 Zrotation Yrotation Xrotation
				JOINT LeftFoot
				{
					OFFSET 2.562200 -7.039590 0.000000
					CHANNELS 3 Zrotation Yrotation Xrotation
					JOINT LeftToeBase
					{
						OFFSET 0.157640 -0.433110 2.322550
						CHANNELS 3 Zrotation Yrotation Xrotation
						End Site
						{
							OFFSET 0.000000 0.000000 0.000000
						}
					}
				}
			}
		}
	}
	JOINT RHipJoint
	{
		OFFSET 0.000000 0.000000 0.000000
		CHANNELS 3 Zrotation Yrotation Xrotation
		JOINT RightUpLeg
		{
			OFFSET -1.305520 -1.794630 0.839290
			CHANNELS 3 Zrotation Yrotation Xrotation
			JOINT RightLeg
			{
				OFFSET -2.542530 -6.985550 0.000000
				CHANNELS 3 Zrotation Yrotation Xrotation
				JOINT RightFoot
				{
					OFFSET -2.568260 -7.056230 0.000000
					CHANNELS 3 Zrotation Yrotation Xrotation
					JOINT RightToeBase
					{
						OFFSET -0.164730 -0.452590 2.363150
						CHANNELS 3 Zrotation Yrotation Xrotation
						End Site
						{
							OFFSET 0.000000 0.000000 0.000000
						}
					}
				}
			}
		}
	}
}
MOTION
Frames: 11
Frame Time: 0.008333
17.039735 17.805598 2.396969 -7.382154 -82.573461 11.912809 -11.619346 5.715112 1.868674 -0.699012 9.268557 7.834049 -0.229141 1.376308 13.031956 1.435773 7.486341 22.332573 3.119000 -0.000000 -60.826899 8.796651 -0.129102 2.396998 8.941480 -7.518216 -23.441685 2.289757 1.829400 3.849220 -3.621486 -15.050611 -10.342893 -0.354700 0.000000 -37.819900
16.813083 17.861152 2.363049 -6.789517 -82.758255 10.853779 -11.627908 5.770707 1.787188 -0.427631 9.823995 7.868624 -0.135664 1.451036 14.205299 1.568348 7.941392 23.816185 3.432800 0.000001 -56.386101 8.808235 -0.174994 2.318656 9.415685 -7.786557 -22.542469 2.241051 1.891834 3.187698 -3.728183 -15.726360 -10.122104 -0.440700 0.000000 -37.211000
16.588105 17.906630 2.332604 -6.437758 -83.025117 10.057187 -11.646105 5.800836 1.685683 -0.153035 10.477538 7.761498 -0.060539 1.512733 15.560782 1.692860 8.560796 24.641183 3.786900 -0.000000 -51.746301 8.804699 -0.232770 2.255340 9.886171 -7.931465 -21.705952 2.191122 1.918206 2.853107 -3.836450 -16.362623 -9.998389 -0.498600 0.000000 -36.656500
16.364973 17.941586 2.304820 -6.222205 -83.359784 9.415427 -11.670512 5.809210 1.555194 0.132867 11.259006 7.518383 -0.004605 1.567402 17.080852 1.806800 9.336458 24.841198 4.172100 0.000000 -47.272500 8.791292 -0.299046 2.209279 10.329930 -7.943395 -20.913153 2.139178 1.911572 2.815709 -3.941187 -16.935662 -9.968641 -0.524500 -0.000000 -36.193600
16.144355 17.965657 2.278596 -5.856971 -83.744366 8.606416 -11.680754 5.798729 1.392823 0.373711 12.075528 7.274476 0.036926 1.620806 18.634776 1.922883 10.375501 24.557103 4.646700 0.000000 -43.533899 8.787457 -0.362611 2.145474 10.704762 -7.921935 -20.111008 2.086378 1.868461 3.055022 -4.018277 -17.350534 -10.016194 -0.513100 0.000000 -35.885099
15.925356 17.978528 2.252911 -5.405442 -84.164862 7.736114 -11.691230 5.773247 1.192653 0.648931 13.073982 6.865384 0.057220 1.675844 20.365181 2.026827 11.488486 23.722243 5.078099 0.000000 -40.075200 8.785721 -0.430303 2.107993 11.028742 -7.761740 -19.331084 2.030062 1.803134 3.491029 -4.083911 -17.686754 -10.104057 -0.483700 -0.000000 -35.695000
15.708597 17.979960 2.226630 -4.566098 -84.598242 6.465765 -11.680908 5.734562 0.957340 0.902581 14.137748 6.426201 0.062096 1.736080 22.140336 2.134682 12.767127 22.502439 5.511300 0.000000 -37.389500 8.806909 -0.491303 2.057587 11.271009 -7.584527 -18.521457 1.972066 1.713741 4.085712 -4.114096 -17.860939 -10.196178 -0.441500 0.000000 -35.652300
15.493695 17.969568 2.198871 -3.278830 -85.026567 4.753551 -11.650713 5.685224 0.690059 1.159259 15.296050 5.898932 0.049410 1.803011 24.000056 2.242979 14.116765 20.911683 5.871600 0.000000 -35.171100 8.852591 -0.546812 2.006111 11.443649 -7.380166 -17.708375 1.912684 1.606392 4.802108 -4.112301 -17.895515 -10.267797 -0.398600 -0.000000 -35.691099
15.280878 17.947082 2.169008 -1.443125 -85.427677 2.490602 -11.594576 5.625958 0.395894 1.413741 16.503698 5.311777 0.022023 1.877997 25.909085 2.356333 15.515337 19.039439 6.137600 -0.000000 -33.443600 8.929717 -0.594544 1.940476 11.550112 -7.203784 -16.887695 1.853844 1.483123 5.609725 -4.072076 -17.773524 -10.295147 -0.362700 0.000000 -35.760900
15.070039 17.912197 2.136835 0.914751 -85.782817 -0.290015 -11.513300 5.556425 0.082031 1.672989 17.736249 4.655709 -0.017919 1.960927 27.860464 2.473993 16.907231 16.937867 6.271200 -0.000000 -32.040400 9.037450 -0.635906 1.859012 11.605607 -7.077267 -16.082505 1.797318 1.345857 6.498688 -3.995592 -17.504793 -10.272845 -0.336799 -0.000000 -35.777800
14.860993 17.864830 2.102493 3.669796 -86.080728 -3.444390 -11.412463 5.475332 -0.239659 1.937036 18.971629 3.895639 -0.068079 2.049746 29.856536 2.593153 18.236949 14.647253 6.239800 -0.000000 -30.784400 9.168708 -0.673964 1.769185 11.630969 -6.995355 -15.348997 1.744479 1.194885 7.494771 -3.891767 -17.115209 -10.222838 -0.315200 -0.000000 -35.628500
